<?xml version="1.0" encoding="UTF-8" standalone="no"?>
<!-- Generator: Adobe Illustrator 16.0.0, SVG Export Plug-In . SVG Version: 6.00 Build 0)  -->

<svg
   xmlns:dc="http://purl.org/dc/elements/1.1/"
   xmlns:cc="http://creativecommons.org/ns#"
   xmlns:rdf="http://www.w3.org/1999/02/22-rdf-syntax-ns#"
   xmlns:svg="http://www.w3.org/2000/svg"
   xmlns="http://www.w3.org/2000/svg"
   xmlns:sodipodi="http://sodipodi.sourceforge.net/DTD/sodipodi-0.dtd"
   xmlns:inkscape="http://www.inkscape.org/namespaces/inkscape"
   version="1.1"
   id="Capa_1"
   x="0px"
   y="0px"
   width="19.015751"
   height="19.015751"
   viewBox="0 0 19.015741 19.015793"
   xml:space="preserve"
   sodipodi:docname="arrow3.svg"
   inkscape:version="0.92.4 (5da689c313, 2019-01-14)"><metadata
   id="metadata3799"><rdf:RDF><cc:Work
       rdf:about=""><dc:format>image/svg+xml</dc:format><dc:type
         rdf:resource="http://purl.org/dc/dcmitype/StillImage" /><dc:title></dc:title></cc:Work></rdf:RDF></metadata><defs
   id="defs3797" /><sodipodi:namedview
   pagecolor="#ffffff"
   bordercolor="#666666"
   borderopacity="1"
   objecttolerance="10"
   gridtolerance="10"
   guidetolerance="10"
   inkscape:pageopacity="0"
   inkscape:pageshadow="2"
   inkscape:window-width="1366"
   inkscape:window-height="706"
   id="namedview3795"
   showgrid="false"
   inkscape:zoom="0.67800204"
   inkscape:cx="231.36301"
   inkscape:cy="158.1909"
   inkscape:window-x="-8"
   inkscape:window-y="-8"
   inkscape:window-maximized="1"
   inkscape:current-layer="Capa_1"
   units="px"
   width="211mm" />
<g
   id="g3762"
   transform="matrix(0.01507219,0,0,0.00930999,3.417997,6.2670666)">
	<g
   id="_x38_">
		<g
   id="g3759">
			<path
   d="M 617.858,370.896 221.513,9.705 c -13.006,-12.94 -34.099,-12.94 -47.105,0 -13.006,12.939 -13.006,33.934 0,46.874 L 546.855,396.017 174.441,735.454 c -13.006,12.94 -13.006,33.935 0,46.874 13.006,12.939 34.099,12.939 47.104,0 L 617.891,421.137 c 6.932,-6.898 9.904,-16.043 9.441,-25.087 0.431,-9.078 -2.54,-18.222 -9.474,-25.154 z"
   id="path3757"
   inkscape:connector-curvature="0" />
		</g>
	</g>
</g>
<g
   id="g3764"
   transform="matrix(0.03100957,0,0,0.0167588,-5.1058346,-771.01752)">
</g>
<g
   id="g3766"
   transform="matrix(0.03100957,0,0,0.0167588,-5.1058346,-771.01752)">
</g>
<g
   id="g3768"
   transform="matrix(0.03100957,0,0,0.0167588,-5.1058346,-771.01752)">
</g>
<g
   id="g3770"
   transform="matrix(0.03100957,0,0,0.0167588,-5.1058346,-771.01752)">
</g>
<g
   id="g3772"
   transform="matrix(0.03100957,0,0,0.0167588,-5.1058346,-771.01752)">
</g>
<g
   id="g3774"
   transform="matrix(0.03100957,0,0,0.0167588,-5.1058346,-771.01752)">
</g>
<g
   id="g3776"
   transform="matrix(0.03100957,0,0,0.0167588,-5.1058346,-771.01752)">
</g>
<g
   id="g3778"
   transform="matrix(0.03100957,0,0,0.0167588,-5.1058346,-771.01752)">
</g>
<g
   id="g3780"
   transform="matrix(0.03100957,0,0,0.0167588,-5.1058346,-771.01752)">
</g>
<g
   id="g3782"
   transform="matrix(0.03100957,0,0,0.0167588,-5.1058346,-771.01752)">
</g>
<g
   id="g3784"
   transform="matrix(0.03100957,0,0,0.0167588,-5.1058346,-771.01752)">
</g>
<g
   id="g3786"
   transform="matrix(0.03100957,0,0,0.0167588,-5.1058346,-771.01752)">
</g>
<g
   id="g3788"
   transform="matrix(0.03100957,0,0,0.0167588,-5.1058346,-771.01752)">
</g>
<g
   id="g3790"
   transform="matrix(0.03100957,0,0,0.0167588,-5.1058346,-771.01752)">
</g>
<g
   id="g3792"
   transform="matrix(0.03100957,0,0,0.0167588,-5.1058346,-771.01752)">
</g>
</svg>